<svg width="1519" height="383" viewBox="0 0 1519 383" fill="none" xmlns="http://www.w3.org/2000/svg">
<g filter="url(#filter0_d_1_85)">
<rect x="526" y="40" width="467" height="303" rx="10" fill="white"/>
</g>
<path d="M574.658 266.618H569.762V272H567.458V258.842H575.594V260.966H569.762V264.548H574.658V266.618ZM575.779 267.536C575.779 264.764 577.777 262.856 580.531 262.856C583.285 262.856 585.283 264.764 585.283 267.536C585.283 270.308 583.285 272.216 580.531 272.216C577.777 272.216 575.779 270.308 575.779 267.536ZM577.975 267.536C577.975 269.156 579.019 270.254 580.531 270.254C582.043 270.254 583.087 269.156 583.087 267.536C583.087 265.916 582.043 264.818 580.531 264.818C579.019 264.818 577.975 265.916 577.975 267.536ZM588.878 272H586.7V258.608H588.878V272ZM593.036 272H590.858V258.608H593.036V272ZM594.457 267.536C594.457 264.764 596.455 262.856 599.209 262.856C601.963 262.856 603.961 264.764 603.961 267.536C603.961 270.308 601.963 272.216 599.209 272.216C596.455 272.216 594.457 270.308 594.457 267.536ZM596.653 267.536C596.653 269.156 597.697 270.254 599.209 270.254C600.721 270.254 601.765 269.156 601.765 267.536C601.765 265.916 600.721 264.818 599.209 264.818C597.697 264.818 596.653 265.916 596.653 267.536ZM606.864 272L603.984 263.108H606.27L607.44 266.924C607.638 267.626 607.818 268.4 607.98 269.228C608.142 268.364 608.304 267.806 608.592 266.924L609.816 263.108H612.048L613.236 266.924C613.344 267.284 613.704 268.616 613.812 269.21C613.956 268.544 614.244 267.482 614.406 266.924L615.594 263.108H617.916L614.838 272H612.786L611.562 268.148C611.202 266.978 611.004 266.132 610.932 265.682C610.842 266.096 610.68 266.726 610.23 268.184L609.006 272H606.864ZM629.264 272.216C625.43 272.216 622.946 269.552 622.946 265.43C622.946 261.344 625.52 258.626 629.372 258.626C632.486 258.626 634.808 260.444 635.258 263.27H632.828C632.378 261.74 631.064 260.84 629.318 260.84C626.888 260.84 625.358 262.604 625.358 265.412C625.358 268.202 626.906 270.002 629.318 270.002C631.1 270.002 632.468 269.066 632.9 267.608H635.294C634.79 270.38 632.378 272.216 629.264 272.216ZM642.256 263.072V265.106H641.446C639.862 265.106 638.872 265.952 638.872 267.68V272H636.676V263.126H638.746L638.872 264.422C639.25 263.54 640.096 262.946 641.284 262.946C641.59 262.946 641.896 262.982 642.256 263.072ZM647.061 272.234C644.415 272.234 642.561 270.308 642.561 267.554C642.561 264.764 644.379 262.838 646.989 262.838C649.653 262.838 651.345 264.62 651.345 267.392V268.058L644.649 268.076C644.811 269.642 645.639 270.434 647.097 270.434C648.303 270.434 649.095 269.966 649.347 269.12H651.381C651.003 271.064 649.383 272.234 647.061 272.234ZM647.007 264.638C645.711 264.638 644.919 265.34 644.703 266.672H649.167C649.167 265.448 648.321 264.638 647.007 264.638ZM655.301 272.234C653.411 272.234 652.259 271.136 652.259 269.462C652.259 267.824 653.447 266.798 655.553 266.636L658.217 266.438V266.24C658.217 265.034 657.497 264.548 656.381 264.548C655.085 264.548 654.365 265.088 654.365 266.024H652.493C652.493 264.098 654.077 262.838 656.489 262.838C658.883 262.838 660.359 264.134 660.359 266.6V272H658.433L658.271 270.686C657.893 271.604 656.687 272.234 655.301 272.234ZM656.021 270.578C657.371 270.578 658.235 269.768 658.235 268.4V267.932L656.381 268.076C655.013 268.202 654.491 268.652 654.491 269.372C654.491 270.182 655.031 270.578 656.021 270.578ZM665.057 272H662.861V264.944H661.151V263.108H662.861V260.336H665.057V263.108H666.785V264.944H665.057V272ZM667.181 267.536C667.181 264.764 669.179 262.856 671.933 262.856C674.687 262.856 676.685 264.764 676.685 267.536C676.685 270.308 674.687 272.216 671.933 272.216C669.179 272.216 667.181 270.308 667.181 267.536ZM669.377 267.536C669.377 269.156 670.421 270.254 671.933 270.254C673.445 270.254 674.489 269.156 674.489 267.536C674.489 265.916 673.445 264.818 671.933 264.818C670.421 264.818 669.377 265.916 669.377 267.536ZM683.645 263.072V265.106H682.835C681.251 265.106 680.261 265.952 680.261 267.68V272H678.065V263.126H680.135L680.261 264.422C680.639 263.54 681.485 262.946 682.673 262.946C682.979 262.946 683.285 262.982 683.645 263.072ZM684.088 269.3H686.176C686.194 270.074 686.77 270.56 687.778 270.56C688.804 270.56 689.362 270.146 689.362 269.498C689.362 269.048 689.128 268.724 688.336 268.544L686.734 268.166C685.132 267.806 684.358 267.05 684.358 265.628C684.358 263.882 685.834 262.838 687.886 262.838C689.884 262.838 691.234 263.99 691.252 265.718H689.164C689.146 264.962 688.642 264.476 687.796 264.476C686.932 264.476 686.428 264.872 686.428 265.538C686.428 266.042 686.824 266.366 687.58 266.546L689.182 266.924C690.676 267.266 691.432 267.95 691.432 269.318C691.432 271.118 689.902 272.234 687.706 272.234C685.492 272.234 684.088 271.046 684.088 269.3ZM698.693 272H696.299L701.051 258.842H703.409L708.161 272H705.731L704.669 268.958H699.755L698.693 272ZM701.933 262.766L700.439 267.014H704.003L702.491 262.766C702.383 262.424 702.257 262.028 702.221 261.758C702.167 262.01 702.059 262.406 701.933 262.766ZM711.323 272H709.127V263.108H711.161L711.341 264.26C711.899 263.36 712.979 262.838 714.185 262.838C716.417 262.838 717.569 264.224 717.569 266.528V272H715.373V267.05C715.373 265.556 714.635 264.836 713.501 264.836C712.151 264.836 711.323 265.772 711.323 267.212V272ZM723.021 272.234C720.447 272.234 718.845 270.344 718.845 267.59C718.845 264.818 720.465 262.838 723.147 262.838C724.389 262.838 725.487 263.36 726.045 264.242V258.608H728.223V272H726.207L726.063 270.614C725.523 271.64 724.371 272.234 723.021 272.234ZM723.507 270.218C725.037 270.218 726.027 269.12 726.027 267.518C726.027 265.916 725.037 264.8 723.507 264.8C721.977 264.8 721.041 265.934 721.041 267.518C721.041 269.102 721.977 270.218 723.507 270.218ZM734.211 262.514C734.211 260.21 736.119 258.608 738.891 258.608C741.555 258.608 743.247 260.084 743.319 262.46H741.015C740.961 261.326 740.151 260.66 738.855 260.66C737.433 260.66 736.515 261.344 736.515 262.442C736.515 263.378 737.019 263.9 738.117 264.152L740.187 264.602C742.437 265.088 743.535 266.24 743.535 268.202C743.535 270.65 741.627 272.234 738.729 272.234C735.921 272.234 734.085 270.74 734.031 268.382H736.335C736.353 269.498 737.253 270.164 738.729 270.164C740.259 270.164 741.231 269.498 741.231 268.4C741.231 267.518 740.781 266.996 739.701 266.762L737.613 266.294C735.381 265.808 734.211 264.53 734.211 262.514ZM747.581 272.234C745.691 272.234 744.539 271.136 744.539 269.462C744.539 267.824 745.727 266.798 747.833 266.636L750.497 266.438V266.24C750.497 265.034 749.777 264.548 748.661 264.548C747.365 264.548 746.645 265.088 746.645 266.024H744.773C744.773 264.098 746.357 262.838 748.769 262.838C751.163 262.838 752.639 264.134 752.639 266.6V272H750.713L750.551 270.686C750.173 271.604 748.967 272.234 747.581 272.234ZM748.301 270.578C749.651 270.578 750.515 269.768 750.515 268.4V267.932L748.661 268.076C747.293 268.202 746.771 268.652 746.771 269.372C746.771 270.182 747.311 270.578 748.301 270.578ZM756.605 272L753.077 263.108H755.417L756.965 267.194C757.343 268.256 757.649 269.174 757.757 269.66C757.883 269.102 758.207 268.166 758.585 267.194L760.205 263.108H762.473L758.765 272H756.605ZM766.914 272.234C764.268 272.234 762.414 270.308 762.414 267.554C762.414 264.764 764.232 262.838 766.842 262.838C769.506 262.838 771.198 264.62 771.198 267.392V268.058L764.502 268.076C764.664 269.642 765.492 270.434 766.95 270.434C768.156 270.434 768.948 269.966 769.2 269.12H771.234C770.856 271.064 769.236 272.234 766.914 272.234ZM766.86 264.638C765.564 264.638 764.772 265.34 764.556 266.672H769.02C769.02 265.448 768.174 264.638 766.86 264.638ZM780.579 266.816L776.133 258.842H778.707L781.299 263.63C781.497 263.99 781.623 264.278 781.767 264.602C781.929 264.278 782.001 264.062 782.235 263.63L784.809 258.842H787.311L782.883 266.816V272H780.579V266.816ZM785.873 267.536C785.873 264.764 787.871 262.856 790.625 262.856C793.379 262.856 795.377 264.764 795.377 267.536C795.377 270.308 793.379 272.216 790.625 272.216C787.871 272.216 785.873 270.308 785.873 267.536ZM788.069 267.536C788.069 269.156 789.113 270.254 790.625 270.254C792.137 270.254 793.181 269.156 793.181 267.536C793.181 265.916 792.137 264.818 790.625 264.818C789.113 264.818 788.069 265.916 788.069 267.536ZM802.577 263.108H804.773V272H802.739L802.577 270.812C802.037 271.658 800.885 272.234 799.697 272.234C797.645 272.234 796.439 270.848 796.439 268.67V263.108H798.635V267.896C798.635 269.588 799.301 270.272 800.525 270.272C801.911 270.272 802.577 269.462 802.577 267.77V263.108ZM812.261 263.072V265.106H811.451C809.867 265.106 808.877 265.952 808.877 267.68V272H806.681V263.126H808.751L808.877 264.422C809.255 263.54 810.101 262.946 811.289 262.946C811.595 262.946 811.901 262.982 812.261 263.072ZM574.658 292.618H569.762V298H567.458V284.842H575.594V286.966H569.762V290.548H574.658V292.618ZM578.912 298.234C577.022 298.234 575.87 297.136 575.87 295.462C575.87 293.824 577.058 292.798 579.164 292.636L581.828 292.438V292.24C581.828 291.034 581.108 290.548 579.992 290.548C578.696 290.548 577.976 291.088 577.976 292.024H576.104C576.104 290.098 577.688 288.838 580.1 288.838C582.494 288.838 583.97 290.134 583.97 292.6V298H582.044L581.882 296.686C581.504 297.604 580.298 298.234 578.912 298.234ZM579.632 296.578C580.982 296.578 581.846 295.768 581.846 294.4V293.932L579.992 294.076C578.624 294.202 578.102 294.652 578.102 295.372C578.102 296.182 578.642 296.578 579.632 296.578ZM587.936 298L584.408 289.108H586.748L588.296 293.194C588.674 294.256 588.98 295.174 589.088 295.66C589.214 295.102 589.538 294.166 589.916 293.194L591.536 289.108H593.804L590.096 298H587.936ZM593.745 293.536C593.745 290.764 595.743 288.856 598.497 288.856C601.251 288.856 603.249 290.764 603.249 293.536C603.249 296.308 601.251 298.216 598.497 298.216C595.743 298.216 593.745 296.308 593.745 293.536ZM595.941 293.536C595.941 295.156 596.985 296.254 598.497 296.254C600.009 296.254 601.053 295.156 601.053 293.536C601.053 291.916 600.009 290.818 598.497 290.818C596.985 290.818 595.941 291.916 595.941 293.536ZM610.21 289.072V291.106H609.4C607.816 291.106 606.826 291.952 606.826 293.68V298H604.63V289.126H606.7L606.826 290.422C607.204 289.54 608.05 288.946 609.238 288.946C609.544 288.946 609.85 288.982 610.21 289.072ZM612.434 287.326C611.678 287.326 611.084 286.732 611.084 285.994C611.084 285.256 611.678 284.68 612.434 284.68C613.154 284.68 613.748 285.256 613.748 285.994C613.748 286.732 613.154 287.326 612.434 287.326ZM611.336 298V289.108H613.532V298H611.336ZM618.465 298H616.269V290.944H614.559V289.108H616.269V286.336H618.465V289.108H620.193V290.944H618.465V298ZM625.088 298.234C622.442 298.234 620.588 296.308 620.588 293.554C620.588 290.764 622.406 288.838 625.016 288.838C627.68 288.838 629.372 290.62 629.372 293.392V294.058L622.676 294.076C622.838 295.642 623.666 296.434 625.124 296.434C626.33 296.434 627.122 295.966 627.374 295.12H629.408C629.03 297.064 627.41 298.234 625.088 298.234ZM625.034 290.638C623.738 290.638 622.946 291.34 622.73 292.672H627.194C627.194 291.448 626.348 290.638 625.034 290.638ZM634.487 294.292V293.518H636.701V294.292C636.701 295.3 637.259 296.092 638.555 296.092C639.851 296.092 640.391 295.354 640.391 294.202V284.842H642.695V294.328C642.695 296.65 641.075 298.234 638.573 298.234C635.873 298.234 634.487 296.56 634.487 294.292ZM644.311 293.536C644.311 290.764 646.309 288.856 649.063 288.856C651.817 288.856 653.815 290.764 653.815 293.536C653.815 296.308 651.817 298.216 649.063 298.216C646.309 298.216 644.311 296.308 644.311 293.536ZM646.507 293.536C646.507 295.156 647.551 296.254 649.063 296.254C650.575 296.254 651.619 295.156 651.619 293.536C651.619 291.916 650.575 290.818 649.063 290.818C647.551 290.818 646.507 291.916 646.507 293.536ZM661.015 289.108H663.211V298H661.177L661.015 296.812C660.475 297.658 659.323 298.234 658.135 298.234C656.083 298.234 654.877 296.848 654.877 294.67V289.108H657.073V293.896C657.073 295.588 657.739 296.272 658.963 296.272C660.349 296.272 661.015 295.462 661.015 293.77V289.108ZM670.699 289.072V291.106H669.889C668.305 291.106 667.315 291.952 667.315 293.68V298H665.119V289.126H667.189L667.315 290.422C667.693 289.54 668.539 288.946 669.727 288.946C670.033 288.946 670.339 288.982 670.699 289.072ZM674.021 298H671.825V289.108H673.859L674.039 290.26C674.597 289.36 675.677 288.838 676.883 288.838C679.115 288.838 680.267 290.224 680.267 292.528V298H678.071V293.05C678.071 291.556 677.333 290.836 676.199 290.836C674.849 290.836 674.021 291.772 674.021 293.212V298ZM686.043 298.234C683.397 298.234 681.543 296.308 681.543 293.554C681.543 290.764 683.361 288.838 685.971 288.838C688.635 288.838 690.327 290.62 690.327 293.392V294.058L683.631 294.076C683.793 295.642 684.621 296.434 686.079 296.434C687.285 296.434 688.077 295.966 688.329 295.12H690.363C689.985 297.064 688.365 298.234 686.043 298.234ZM685.989 290.638C684.693 290.638 683.901 291.34 683.685 292.672H688.149C688.149 291.448 687.303 290.638 685.989 290.638ZM690.651 302.122V300.286H691.965C692.829 300.286 693.369 300.088 693.747 299.044L693.999 298.378L690.417 289.108H692.739L695.025 295.588L697.437 289.108H699.705L695.349 299.98C694.683 301.636 693.747 302.32 692.289 302.32C691.677 302.32 691.137 302.248 690.651 302.122ZM699.715 295.3H701.803C701.821 296.074 702.397 296.56 703.405 296.56C704.431 296.56 704.989 296.146 704.989 295.498C704.989 295.048 704.755 294.724 703.963 294.544L702.361 294.166C700.759 293.806 699.985 293.05 699.985 291.628C699.985 289.882 701.461 288.838 703.513 288.838C705.511 288.838 706.861 289.99 706.879 291.718H704.791C704.773 290.962 704.269 290.476 703.423 290.476C702.559 290.476 702.055 290.872 702.055 291.538C702.055 292.042 702.451 292.366 703.207 292.546L704.809 292.924C706.303 293.266 707.059 293.95 707.059 295.318C707.059 297.118 705.529 298.234 703.333 298.234C701.119 298.234 699.715 297.046 699.715 295.3ZM709.795 298.216C709.003 298.216 708.337 297.568 708.337 296.794C708.337 296.002 709.003 295.354 709.795 295.354C710.587 295.354 711.253 296.002 711.253 296.794C711.253 297.568 710.587 298.216 709.795 298.216Z" fill="#747474"/>
<path d="M579.65 219.42C572.195 219.42 567.365 214.24 567.365 206.225C567.365 198.28 572.37 192.995 579.86 192.995C585.915 192.995 590.43 196.53 591.305 202.025H586.58C585.705 199.05 583.15 197.3 579.755 197.3C575.03 197.3 572.055 200.73 572.055 206.19C572.055 211.615 575.065 215.115 579.755 215.115C583.22 215.115 585.88 213.295 586.72 210.46H591.375C590.395 215.85 585.705 219.42 579.65 219.42ZM590.598 210.32C590.598 204.93 594.483 201.22 599.838 201.22C605.193 201.22 609.078 204.93 609.078 210.32C609.078 215.71 605.193 219.42 599.838 219.42C594.483 219.42 590.598 215.71 590.598 210.32ZM594.868 210.32C594.868 213.47 596.898 215.605 599.838 215.605C602.778 215.605 604.808 213.47 604.808 210.32C604.808 207.17 602.778 205.035 599.838 205.035C596.898 205.035 594.868 207.17 594.868 210.32ZM613.582 219H609.312V201.71H613.267L613.617 203.95C614.702 202.2 616.802 201.185 619.147 201.185C623.487 201.185 625.727 203.88 625.727 208.36V219H621.457V209.375C621.457 206.47 620.022 205.07 617.817 205.07C615.192 205.07 613.582 206.89 613.582 209.69V219ZM631.043 219H626.773V201.71H630.728L631.078 203.95C632.163 202.2 634.263 201.185 636.608 201.185C640.948 201.185 643.188 203.88 643.188 208.36V219H638.918V209.375C638.918 206.47 637.483 205.07 635.278 205.07C632.653 205.07 631.043 206.89 631.043 209.69V219ZM651.968 219.455C646.823 219.455 643.218 215.71 643.218 210.355C643.218 204.93 646.753 201.185 651.828 201.185C657.008 201.185 660.298 204.65 660.298 210.04V211.335L647.278 211.37C647.593 214.415 649.203 215.955 652.038 215.955C654.383 215.955 655.923 215.045 656.413 213.4H660.368C659.633 217.18 656.483 219.455 651.968 219.455ZM651.863 204.685C649.343 204.685 647.803 206.05 647.383 208.64H656.063C656.063 206.26 654.418 204.685 651.863 204.685ZM659.55 210.32C659.55 204.965 663.085 201.185 668.195 201.185C672.92 201.185 676.14 203.81 676.595 207.975H672.325C671.835 206.015 670.4 205 668.37 205C665.64 205 663.82 207.065 663.82 210.32C663.82 213.575 665.5 215.605 668.23 215.605C670.365 215.605 671.87 214.555 672.325 212.665H676.63C676.105 216.69 672.745 219.455 668.23 219.455C662.98 219.455 659.55 215.815 659.55 210.32ZM682.539 219H678.269V205.28H674.944V201.71H678.269V196.32H682.539V201.71H685.899V205.28H682.539V219Z" fill="#000D15"/>
<circle cx="601" cy="121" r="35" fill="#0057B8"/>
<g clip-path="url(#clip0_1_85)">
<path d="M604.333 123.128C603.955 122.749 603.342 122.749 602.964 123.128L600.785 125.306L597.694 122.215L599.872 120.036C600.251 119.658 600.251 119.045 599.872 118.667C599.494 118.288 598.881 118.288 598.503 118.667L596.324 120.845L594.582 119.103C594.203 118.725 593.59 118.725 593.212 119.103L589.359 122.956C586.674 125.641 586.506 129.904 588.856 132.786C588.824 132.811 588.794 132.837 588.765 132.866L584.284 137.346C583.905 137.725 583.905 138.338 584.284 138.716C584.473 138.905 584.721 139 584.969 139C585.217 139 585.464 138.905 585.654 138.716L590.134 134.235C590.163 134.207 590.189 134.176 590.214 134.144C591.559 135.241 593.205 135.789 594.85 135.789C596.731 135.789 598.612 135.073 600.044 133.641L603.897 129.788C604.275 129.41 604.275 128.797 603.897 128.418L602.155 126.676L604.333 124.497C604.712 124.119 604.712 123.506 604.333 123.128ZM598.684 129.248C598.558 129.374 598.393 129.437 598.228 129.437C598.062 129.437 597.897 129.374 597.771 129.248L593.752 125.229C593.5 124.977 593.5 124.568 593.752 124.316C594.004 124.064 594.413 124.064 594.665 124.316L598.684 128.335C598.937 128.587 598.937 128.996 598.684 129.248Z" fill="white"/>
<path d="M618.716 105.654C619.095 105.275 619.095 104.662 618.716 104.284C618.338 103.905 617.725 103.905 617.346 104.284L612.866 108.765C612.837 108.793 612.811 108.824 612.786 108.855C611.48 107.788 609.859 107.208 608.15 107.208C606.188 107.208 604.343 107.972 602.956 109.359L599.103 113.212C598.725 113.59 598.725 114.203 599.103 114.582L608.418 123.897C608.6 124.078 608.846 124.18 609.103 124.18C609.36 124.18 609.607 124.078 609.788 123.897L613.641 120.044C615.028 118.657 615.792 116.812 615.792 114.85C615.792 113.141 615.212 111.52 614.144 110.214C614.176 110.189 614.206 110.163 614.235 110.134L618.716 105.654ZM609.342 118.59C609.216 118.716 609.051 118.779 608.886 118.779C608.721 118.779 608.555 118.716 608.429 118.59L604.41 114.571C604.158 114.319 604.158 113.91 604.41 113.658C604.662 113.405 605.071 113.405 605.324 113.658L609.342 117.676C609.595 117.929 609.595 118.338 609.342 118.59Z" fill="white"/>
</g>
<g filter="url(#filter1_d_1_85)">
<rect x="1012" y="40" width="467" height="303" rx="10" fill="white"/>
</g>
<path d="M1053.46 272V258.842H1058.7C1061.29 258.842 1062.87 260.192 1062.87 262.388C1062.87 263.846 1062.22 264.89 1060.98 265.412C1062.37 265.862 1063.07 266.906 1063.07 268.436C1063.07 270.686 1061.5 272 1058.79 272H1053.46ZM1058.5 260.876H1055.76V264.458H1058.55C1059.81 264.458 1060.51 263.792 1060.51 262.622C1060.51 261.488 1059.79 260.876 1058.5 260.876ZM1058.7 266.402H1055.76V269.966H1058.7C1059.99 269.966 1060.71 269.336 1060.71 268.148C1060.71 267.032 1059.97 266.402 1058.7 266.402ZM1063.98 267.536C1063.98 264.764 1065.97 262.856 1068.73 262.856C1071.48 262.856 1073.48 264.764 1073.48 267.536C1073.48 270.308 1071.48 272.216 1068.73 272.216C1065.97 272.216 1063.98 270.308 1063.98 267.536ZM1066.17 267.536C1066.17 269.156 1067.22 270.254 1068.73 270.254C1070.24 270.254 1071.28 269.156 1071.28 267.536C1071.28 265.916 1070.24 264.818 1068.73 264.818C1067.22 264.818 1066.17 265.916 1066.17 267.536ZM1074.34 267.536C1074.34 264.764 1076.34 262.856 1079.09 262.856C1081.85 262.856 1083.84 264.764 1083.84 267.536C1083.84 270.308 1081.85 272.216 1079.09 272.216C1076.34 272.216 1074.34 270.308 1074.34 267.536ZM1076.54 267.536C1076.54 269.156 1077.58 270.254 1079.09 270.254C1080.6 270.254 1081.65 269.156 1081.65 267.536C1081.65 265.916 1080.6 264.818 1079.09 264.818C1077.58 264.818 1076.54 265.916 1076.54 267.536ZM1087.44 272H1085.26V258.608H1087.44V266.834L1090.89 263.108H1093.65L1090.26 266.636L1093.58 272H1091.06L1088.73 268.256L1087.44 269.606V272ZM1097.48 271.208C1097.48 272.702 1096.4 273.89 1094.95 274.07V273.188C1095.76 273.044 1096.37 272.558 1096.37 271.928C1096.22 272 1096.06 272.036 1095.85 272.036C1095.14 272.036 1094.57 271.514 1094.57 270.794C1094.57 269.93 1095.13 269.354 1095.94 269.354C1096.84 269.354 1097.48 270.092 1097.48 271.208ZM1109.45 267.464H1106.55V272H1104.24V258.842H1109.45C1112.09 258.842 1113.8 260.57 1113.8 263.144C1113.8 265.682 1112.07 267.464 1109.45 267.464ZM1109 260.894H1106.55V265.412H1108.96C1110.54 265.412 1111.39 264.566 1111.39 263.126C1111.39 261.686 1110.53 260.894 1109 260.894ZM1117.27 272H1115.09V258.608H1117.27V272ZM1121.86 272.234C1119.97 272.234 1118.82 271.136 1118.82 269.462C1118.82 267.824 1120 266.798 1122.11 266.636L1124.77 266.438V266.24C1124.77 265.034 1124.05 264.548 1122.94 264.548C1121.64 264.548 1120.92 265.088 1120.92 266.024H1119.05C1119.05 264.098 1120.63 262.838 1123.05 262.838C1125.44 262.838 1126.92 264.134 1126.92 266.6V272H1124.99L1124.83 270.686C1124.45 271.604 1123.24 272.234 1121.86 272.234ZM1122.58 270.578C1123.93 270.578 1124.79 269.768 1124.79 268.4V267.932L1122.94 268.076C1121.57 268.202 1121.05 268.652 1121.05 269.372C1121.05 270.182 1121.59 270.578 1122.58 270.578ZM1130.91 272H1128.71V263.108H1130.75L1130.93 264.26C1131.49 263.36 1132.57 262.838 1133.77 262.838C1136 262.838 1137.16 264.224 1137.16 266.528V272H1134.96V267.05C1134.96 265.556 1134.22 264.836 1133.09 264.836C1131.74 264.836 1130.91 265.772 1130.91 267.212V272ZM1141.89 271.208C1141.89 272.702 1140.81 273.89 1139.35 274.07V273.188C1140.16 273.044 1140.77 272.558 1140.77 271.928C1140.63 272 1140.47 272.036 1140.25 272.036C1139.55 272.036 1138.97 271.514 1138.97 270.794C1138.97 269.93 1139.53 269.354 1140.34 269.354C1141.24 269.354 1141.89 270.092 1141.89 271.208ZM1160.65 265.412C1160.65 269.408 1158.03 272.216 1154.25 272.216C1150.48 272.216 1147.89 269.426 1147.89 265.412C1147.89 261.416 1150.5 258.608 1154.26 258.608C1158.03 258.608 1160.65 261.398 1160.65 265.412ZM1158.22 265.412C1158.22 262.604 1156.68 260.822 1154.26 260.822C1151.85 260.822 1150.3 262.604 1150.3 265.412C1150.3 268.22 1151.85 270.002 1154.26 270.002C1156.68 270.002 1158.22 268.184 1158.22 265.412ZM1167.69 263.072V265.106H1166.88C1165.3 265.106 1164.31 265.952 1164.31 267.68V272H1162.11V263.126H1164.18L1164.31 264.422C1164.69 263.54 1165.53 262.946 1166.72 262.946C1167.03 262.946 1167.33 262.982 1167.69 263.072ZM1173.64 272V258.842H1178.87C1181.47 258.842 1183.05 260.192 1183.05 262.388C1183.05 263.846 1182.4 264.89 1181.16 265.412C1182.55 265.862 1183.25 266.906 1183.25 268.436C1183.25 270.686 1181.68 272 1178.96 272H1173.64ZM1178.68 260.876H1175.94V264.458H1178.73C1179.99 264.458 1180.69 263.792 1180.69 262.622C1180.69 261.488 1179.97 260.876 1178.68 260.876ZM1178.87 266.402H1175.94V269.966H1178.87C1180.17 269.966 1180.89 269.336 1180.89 268.148C1180.89 267.032 1180.15 266.402 1178.87 266.402ZM1188.65 272.234C1186.01 272.234 1184.15 270.308 1184.15 267.554C1184.15 264.764 1185.97 262.838 1188.58 262.838C1191.25 262.838 1192.94 264.62 1192.94 267.392V268.058L1186.24 268.076C1186.4 269.642 1187.23 270.434 1188.69 270.434C1189.9 270.434 1190.69 269.966 1190.94 269.12H1192.97C1192.6 271.064 1190.98 272.234 1188.65 272.234ZM1188.6 264.638C1187.3 264.638 1186.51 265.34 1186.3 266.672H1190.76C1190.76 265.448 1189.91 264.638 1188.6 264.638ZM1201.46 258.842V272H1199.15V258.842H1201.46ZM1205.88 272H1203.69V263.108H1205.72L1205.9 264.26C1206.46 263.36 1207.54 262.838 1208.75 262.838C1210.98 262.838 1212.13 264.224 1212.13 266.528V272H1209.93V267.05C1209.93 265.556 1209.2 264.836 1208.06 264.836C1206.71 264.836 1205.88 265.772 1205.88 267.212V272ZM1213.14 269.3H1215.23C1215.24 270.074 1215.82 270.56 1216.83 270.56C1217.85 270.56 1218.41 270.146 1218.41 269.498C1218.41 269.048 1218.18 268.724 1217.39 268.544L1215.78 268.166C1214.18 267.806 1213.41 267.05 1213.41 265.628C1213.41 263.882 1214.88 262.838 1216.94 262.838C1218.93 262.838 1220.28 263.99 1220.3 265.718H1218.21C1218.2 264.962 1217.69 264.476 1216.85 264.476C1215.98 264.476 1215.48 264.872 1215.48 265.538C1215.48 266.042 1215.87 266.366 1216.63 266.546L1218.23 266.924C1219.73 267.266 1220.48 267.95 1220.48 269.318C1220.48 271.118 1218.95 272.234 1216.76 272.234C1214.54 272.234 1213.14 271.046 1213.14 269.3ZM1221.79 276.122V263.108H1223.83L1223.97 264.458C1224.51 263.432 1225.68 262.838 1227.03 262.838C1229.53 262.838 1231.19 264.656 1231.19 267.446C1231.19 270.218 1229.68 272.234 1227.03 272.234C1225.7 272.234 1224.55 271.712 1223.99 270.812V276.122H1221.79ZM1224.01 267.554C1224.01 269.156 1225 270.254 1226.51 270.254C1228.06 270.254 1228.98 269.138 1228.98 267.554C1228.98 265.97 1228.06 264.836 1226.51 264.836C1225 264.836 1224.01 265.952 1224.01 267.554ZM1233.68 261.326C1232.92 261.326 1232.33 260.732 1232.33 259.994C1232.33 259.256 1232.92 258.68 1233.68 258.68C1234.4 258.68 1234.99 259.256 1234.99 259.994C1234.99 260.732 1234.4 261.326 1233.68 261.326ZM1232.58 272V263.108H1234.78V272H1232.58ZM1242.26 263.072V265.106H1241.45C1239.87 265.106 1238.88 265.952 1238.88 267.68V272H1236.68V263.126H1238.75L1238.88 264.422C1239.26 263.54 1240.1 262.946 1241.29 262.946C1241.6 262.946 1241.9 262.982 1242.26 263.072ZM1247.07 272.234C1244.42 272.234 1242.57 270.308 1242.57 267.554C1242.57 264.764 1244.39 262.838 1247 262.838C1249.66 262.838 1251.35 264.62 1251.35 267.392V268.058L1244.66 268.076C1244.82 269.642 1245.65 270.434 1247.11 270.434C1248.31 270.434 1249.1 269.966 1249.36 269.12H1251.39C1251.01 271.064 1249.39 272.234 1247.07 272.234ZM1247.02 264.638C1245.72 264.638 1244.93 265.34 1244.71 266.672H1249.18C1249.18 265.448 1248.33 264.638 1247.02 264.638ZM1256.41 272.234C1253.83 272.234 1252.23 270.344 1252.23 267.59C1252.23 264.818 1253.85 262.838 1256.53 262.838C1257.77 262.838 1258.87 263.36 1259.43 264.242V258.608H1261.61V272H1259.59L1259.45 270.614C1258.91 271.64 1257.76 272.234 1256.41 272.234ZM1256.89 270.218C1258.42 270.218 1259.41 269.12 1259.41 267.518C1259.41 265.916 1258.42 264.8 1256.89 264.8C1255.36 264.8 1254.43 265.934 1254.43 267.518C1254.43 269.102 1255.36 270.218 1256.89 270.218ZM1267.2 260.966V258.842H1277.21V260.966H1273.36V272H1271.05V260.966H1267.2ZM1276.25 267.536C1276.25 264.764 1278.25 262.856 1281 262.856C1283.76 262.856 1285.75 264.764 1285.75 267.536C1285.75 270.308 1283.76 272.216 1281 272.216C1278.25 272.216 1276.25 270.308 1276.25 267.536ZM1278.45 267.536C1278.45 269.156 1279.49 270.254 1281 270.254C1282.51 270.254 1283.56 269.156 1283.56 267.536C1283.56 265.916 1282.51 264.818 1281 264.818C1279.49 264.818 1278.45 265.916 1278.45 267.536ZM1297.71 260.786C1295.1 260.786 1293.61 262.676 1293.61 265.52C1293.61 268.454 1295.3 270.056 1297.73 270.056C1300.01 270.056 1301.4 268.796 1301.4 266.69V266.636H1297.42V264.602H1303.54V272H1301.6L1301.45 270.488C1300.73 271.496 1299.24 272.198 1297.46 272.198C1293.77 272.198 1291.19 269.516 1291.19 265.466C1291.19 261.47 1293.8 258.626 1297.76 258.626C1300.77 258.626 1303.09 260.372 1303.47 263.054H1301.04C1300.63 261.506 1299.29 260.786 1297.71 260.786ZM1304.83 267.536C1304.83 264.764 1306.82 262.856 1309.58 262.856C1312.33 262.856 1314.33 264.764 1314.33 267.536C1314.33 270.308 1312.33 272.216 1309.58 272.216C1306.82 272.216 1304.83 270.308 1304.83 267.536ZM1307.02 267.536C1307.02 269.156 1308.07 270.254 1309.58 270.254C1311.09 270.254 1312.13 269.156 1312.13 267.536C1312.13 265.916 1311.09 264.818 1309.58 264.818C1308.07 264.818 1307.02 265.916 1307.02 267.536ZM1052.31 286.966V284.842H1062.31V286.966H1058.46V298H1056.16V286.966H1052.31ZM1065.59 298H1063.39V284.608H1065.61V290.26C1066.16 289.396 1067.21 288.838 1068.49 288.838C1070.68 288.838 1071.83 290.224 1071.83 292.528V298H1069.64V293.05C1069.64 291.556 1068.9 290.836 1067.78 290.836C1066.4 290.836 1065.59 291.808 1065.59 293.14V298ZM1077.61 298.234C1074.96 298.234 1073.11 296.308 1073.11 293.554C1073.11 290.764 1074.93 288.838 1077.54 288.838C1080.2 288.838 1081.89 290.62 1081.89 293.392V294.058L1075.2 294.076C1075.36 295.642 1076.19 296.434 1077.64 296.434C1078.85 296.434 1079.64 295.966 1079.89 295.12H1081.93C1081.55 297.064 1079.93 298.234 1077.61 298.234ZM1077.55 290.638C1076.26 290.638 1075.47 291.34 1075.25 292.672H1079.71C1079.71 291.448 1078.87 290.638 1077.55 290.638ZM1088.87 289.072V291.106H1088.06C1086.48 291.106 1085.49 291.952 1085.49 293.68V298H1083.29V289.126H1085.36L1085.49 290.422C1085.86 289.54 1086.71 288.946 1087.9 288.946C1088.2 288.946 1088.51 288.982 1088.87 289.072ZM1093.68 298.234C1091.03 298.234 1089.18 296.308 1089.18 293.554C1089.18 290.764 1090.99 288.838 1093.6 288.838C1096.27 288.838 1097.96 290.62 1097.96 293.392V294.058L1091.26 294.076C1091.43 295.642 1092.25 296.434 1093.71 296.434C1094.92 296.434 1095.71 295.966 1095.96 295.12H1098C1097.62 297.064 1096 298.234 1093.68 298.234ZM1093.62 290.638C1092.33 290.638 1091.53 291.34 1091.32 292.672H1095.78C1095.78 291.448 1094.94 290.638 1093.62 290.638ZM1107.34 292.816L1102.9 284.842H1105.47L1108.06 289.63C1108.26 289.99 1108.39 290.278 1108.53 290.602C1108.69 290.278 1108.76 290.062 1109 289.63L1111.57 284.842H1114.07L1109.65 292.816V298H1107.34V292.816ZM1112.63 293.536C1112.63 290.764 1114.63 288.856 1117.39 288.856C1120.14 288.856 1122.14 290.764 1122.14 293.536C1122.14 296.308 1120.14 298.216 1117.39 298.216C1114.63 298.216 1112.63 296.308 1112.63 293.536ZM1114.83 293.536C1114.83 295.156 1115.87 296.254 1117.39 296.254C1118.9 296.254 1119.94 295.156 1119.94 293.536C1119.94 291.916 1118.9 290.818 1117.39 290.818C1115.87 290.818 1114.83 291.916 1114.83 293.536ZM1129.34 289.108H1131.53V298H1129.5L1129.34 296.812C1128.8 297.658 1127.65 298.234 1126.46 298.234C1124.41 298.234 1123.2 296.848 1123.2 294.67V289.108H1125.4V293.896C1125.4 295.588 1126.06 296.272 1127.29 296.272C1128.67 296.272 1129.34 295.462 1129.34 293.77V289.108ZM1139.02 289.072V291.106H1138.21C1136.63 291.106 1135.64 291.952 1135.64 293.68V298H1133.44V289.126H1135.51L1135.64 290.422C1136.02 289.54 1136.86 288.946 1138.05 288.946C1138.36 288.946 1138.66 288.982 1139.02 289.072ZM1139.47 295.3H1141.55C1141.57 296.074 1142.15 296.56 1143.16 296.56C1144.18 296.56 1144.74 296.146 1144.74 295.498C1144.74 295.048 1144.51 294.724 1143.71 294.544L1142.11 294.166C1140.51 293.806 1139.74 293.05 1139.74 291.628C1139.74 289.882 1141.21 288.838 1143.26 288.838C1145.26 288.838 1146.61 289.99 1146.63 291.718H1144.54C1144.52 290.962 1144.02 290.476 1143.17 290.476C1142.31 290.476 1141.81 290.872 1141.81 291.538C1141.81 292.042 1142.2 292.366 1142.96 292.546L1144.56 292.924C1146.05 293.266 1146.81 293.95 1146.81 295.318C1146.81 297.118 1145.28 298.234 1143.08 298.234C1140.87 298.234 1139.47 297.046 1139.47 295.3ZM1152.1 298.234C1149.45 298.234 1147.6 296.308 1147.6 293.554C1147.6 290.764 1149.42 288.838 1152.03 288.838C1154.69 288.838 1156.38 290.62 1156.38 293.392V294.058L1149.69 294.076C1149.85 295.642 1150.68 296.434 1152.14 296.434C1153.34 296.434 1154.13 295.966 1154.39 295.12H1156.42C1156.04 297.064 1154.42 298.234 1152.1 298.234ZM1152.05 290.638C1150.75 290.638 1149.96 291.34 1149.74 292.672H1154.21C1154.21 291.448 1153.36 290.638 1152.05 290.638ZM1159.99 298H1157.82V284.608H1159.99V298ZM1161.06 289.108H1162.33V288.028C1162.33 285.616 1163.61 284.608 1165.54 284.608C1165.88 284.608 1166.29 284.626 1166.67 284.698V286.57H1165.9C1164.78 286.57 1164.51 287.146 1164.51 288.028V289.108H1166.64V290.944H1164.51V298H1162.33V290.944H1161.06V289.108Z" fill="#747474"/>
<path d="M1070.73 219H1054.84V193.415H1070.73V197.545H1059.32V204.125H1069.54V208.08H1059.32V214.87H1070.73V219ZM1074.81 219H1069.95L1075.9 210.53L1069.95 201.71H1074.92L1078.73 207.59L1082.41 201.71H1087.2L1081.32 210.46L1087.03 219H1082.13L1078.45 213.295L1074.81 219ZM1086.6 227.015V201.71H1090.55L1090.83 204.335C1091.88 202.34 1094.16 201.185 1096.78 201.185C1101.65 201.185 1104.87 204.72 1104.87 210.145C1104.87 215.535 1101.93 219.455 1096.78 219.455C1094.19 219.455 1091.95 218.44 1090.87 216.69V227.015H1086.6ZM1090.9 210.355C1090.9 213.47 1092.83 215.605 1095.77 215.605C1098.78 215.605 1100.56 213.435 1100.56 210.355C1100.56 207.275 1098.78 205.07 1095.77 205.07C1092.83 205.07 1090.9 207.24 1090.9 210.355ZM1112.85 219.455C1107.71 219.455 1104.1 215.71 1104.1 210.355C1104.1 204.93 1107.64 201.185 1112.71 201.185C1117.89 201.185 1121.18 204.65 1121.18 210.04V211.335L1108.16 211.37C1108.48 214.415 1110.09 215.955 1112.92 215.955C1115.27 215.955 1116.81 215.045 1117.3 213.4H1121.25C1120.52 217.18 1117.37 219.455 1112.85 219.455ZM1112.75 204.685C1110.23 204.685 1108.69 206.05 1108.27 208.64H1116.95C1116.95 206.26 1115.3 204.685 1112.75 204.685ZM1132.3 201.64V205.595H1130.72C1127.64 205.595 1125.72 207.24 1125.72 210.6V219H1121.45V201.745H1125.47L1125.72 204.265C1126.45 202.55 1128.1 201.395 1130.41 201.395C1131 201.395 1131.6 201.465 1132.3 201.64ZM1134.17 198.245C1132.7 198.245 1131.55 197.09 1131.55 195.655C1131.55 194.22 1132.7 193.1 1134.17 193.1C1135.57 193.1 1136.73 194.22 1136.73 195.655C1136.73 197.09 1135.57 198.245 1134.17 198.245ZM1132.04 219V201.71H1136.31V219H1132.04ZM1145.31 219.455C1140.16 219.455 1136.56 215.71 1136.56 210.355C1136.56 204.93 1140.09 201.185 1145.17 201.185C1150.35 201.185 1153.64 204.65 1153.64 210.04V211.335L1140.62 211.37C1140.93 214.415 1142.54 215.955 1145.38 215.955C1147.72 215.955 1149.26 215.045 1149.75 213.4H1153.71C1152.97 217.18 1149.82 219.455 1145.31 219.455ZM1145.2 204.685C1142.68 204.685 1141.14 206.05 1140.72 208.64H1149.4C1149.4 206.26 1147.76 204.685 1145.2 204.685ZM1158.17 219H1153.9V201.71H1157.86L1158.21 203.95C1159.29 202.2 1161.39 201.185 1163.74 201.185C1168.08 201.185 1170.32 203.88 1170.32 208.36V219H1166.05V209.375C1166.05 206.47 1164.61 205.07 1162.41 205.07C1159.78 205.07 1158.17 206.89 1158.17 209.69V219ZM1170.35 210.32C1170.35 204.965 1173.88 201.185 1178.99 201.185C1183.72 201.185 1186.94 203.81 1187.39 207.975H1183.12C1182.63 206.015 1181.2 205 1179.17 205C1176.44 205 1174.62 207.065 1174.62 210.32C1174.62 213.575 1176.3 215.605 1179.03 215.605C1181.16 215.605 1182.67 214.555 1183.12 212.665H1187.43C1186.9 216.69 1183.54 219.455 1179.03 219.455C1173.78 219.455 1170.35 215.815 1170.35 210.32ZM1195.19 219.455C1190.05 219.455 1186.44 215.71 1186.44 210.355C1186.44 204.93 1189.98 201.185 1195.05 201.185C1200.23 201.185 1203.52 204.65 1203.52 210.04V211.335L1190.5 211.37C1190.82 214.415 1192.43 215.955 1195.26 215.955C1197.61 215.955 1199.15 215.045 1199.64 213.4H1203.59C1202.86 217.18 1199.71 219.455 1195.19 219.455ZM1195.09 204.685C1192.57 204.685 1191.03 206.05 1190.61 208.64H1199.29C1199.29 206.26 1197.64 204.685 1195.09 204.685Z" fill="#000D15"/>
<circle cx="1087" cy="121" r="35" fill="#0057B8"/>
<path d="M1087.5 104C1080.12 104 1074.11 110.006 1074.11 117.387C1074.11 124.769 1080.12 130.775 1087.5 130.775C1094.88 130.775 1100.89 124.769 1100.89 117.387C1100.89 110.006 1094.88 104 1087.5 104ZM1093.78 126.034L1087.5 123.061L1081.22 126.034L1082.1 119.141L1077.34 114.085L1084.17 112.798L1087.5 106.7L1090.83 112.797L1097.66 114.085L1092.9 119.141L1093.78 126.034Z" fill="white"/>
<path d="M1089.5 114.633L1087.5 110.974L1085.5 114.633L1081.4 115.406L1084.26 118.44L1083.73 122.577L1087.5 120.792L1091.27 122.577L1090.74 118.44L1093.6 115.406L1089.5 114.633Z" fill="white"/>
<path d="M1078.15 134.314C1079.05 134.183 1079.92 133.876 1080.71 133.409V131.26C1079.81 130.819 1078.95 130.289 1078.15 129.673V134.314Z" fill="white"/>
<path d="M1094.29 133.409C1095.08 133.876 1095.95 134.183 1096.85 134.314V129.673C1096.05 130.289 1095.19 130.819 1094.29 131.26V133.409Z" fill="white"/>
<path d="M1082.76 132.087V139C1084.28 138.781 1085.67 138.076 1086.77 136.96L1087.5 136.213L1088.23 136.96C1089.33 138.076 1090.72 138.781 1092.24 139V132.087C1090.73 132.573 1089.13 132.826 1087.5 132.826C1085.87 132.826 1084.27 132.573 1082.76 132.087Z" fill="white"/>
<g filter="url(#filter2_d_1_85)">
<rect x="40" y="40" width="467" height="303" rx="10" fill="white"/>
</g>
<path d="M88.658 266.618H83.762V272H81.458V258.842H89.594V260.966H83.762V264.548H88.658V266.618ZM92.0849 261.326C91.3289 261.326 90.7349 260.732 90.7349 259.994C90.7349 259.256 91.3289 258.68 92.0849 258.68C92.8049 258.68 93.3989 259.256 93.3989 259.994C93.3989 260.732 92.8049 261.326 92.0849 261.326ZM90.9869 272V263.108H93.1829V272H90.9869ZM97.2877 272H95.0917V263.108H97.1257L97.3057 264.26C97.8637 263.36 98.9437 262.838 100.15 262.838C102.382 262.838 103.534 264.224 103.534 266.528V272H101.338V267.05C101.338 265.556 100.6 264.836 99.4657 264.836C98.1157 264.836 97.2877 265.772 97.2877 267.212V272ZM108.985 272.234C106.411 272.234 104.809 270.344 104.809 267.59C104.809 264.818 106.429 262.838 109.111 262.838C110.353 262.838 111.451 263.36 112.009 264.242V258.608H114.187V272H112.171L112.027 270.614C111.487 271.64 110.335 272.234 108.985 272.234ZM109.471 270.218C111.001 270.218 111.991 269.12 111.991 267.518C111.991 265.916 111.001 264.8 109.471 264.8C107.941 264.8 107.005 265.934 107.005 267.518C107.005 269.102 107.941 270.218 109.471 270.218ZM120.175 262.514C120.175 260.21 122.083 258.608 124.855 258.608C127.519 258.608 129.211 260.084 129.283 262.46H126.979C126.925 261.326 126.115 260.66 124.819 260.66C123.397 260.66 122.479 261.344 122.479 262.442C122.479 263.378 122.983 263.9 124.081 264.152L126.151 264.602C128.401 265.088 129.499 266.24 129.499 268.202C129.499 270.65 127.591 272.234 124.693 272.234C121.885 272.234 120.049 270.74 119.995 268.382H122.299C122.317 269.498 123.217 270.164 124.693 270.164C126.223 270.164 127.195 269.498 127.195 268.4C127.195 267.518 126.745 266.996 125.665 266.762L123.577 266.294C121.345 265.808 120.175 264.53 120.175 262.514ZM133.924 272H131.728V264.944H130.018V263.108H131.728V260.336H133.924V263.108H135.652V264.944H133.924V272ZM136.047 267.536C136.047 264.764 138.045 262.856 140.799 262.856C143.553 262.856 145.551 264.764 145.551 267.536C145.551 270.308 143.553 272.216 140.799 272.216C138.045 272.216 136.047 270.308 136.047 267.536ZM138.243 267.536C138.243 269.156 139.287 270.254 140.799 270.254C142.311 270.254 143.355 269.156 143.355 267.536C143.355 265.916 142.311 264.818 140.799 264.818C139.287 264.818 138.243 265.916 138.243 267.536ZM152.512 263.072V265.106H151.702C150.118 265.106 149.128 265.952 149.128 267.68V272H146.932V263.126H149.002L149.128 264.422C149.506 263.54 150.352 262.946 151.54 262.946C151.846 262.946 152.152 262.982 152.512 263.072ZM154.736 261.326C153.98 261.326 153.386 260.732 153.386 259.994C153.386 259.256 153.98 258.68 154.736 258.68C155.456 258.68 156.05 259.256 156.05 259.994C156.05 260.732 155.456 261.326 154.736 261.326ZM153.638 272V263.108H155.834V272H153.638ZM161.721 272.234C159.075 272.234 157.221 270.308 157.221 267.554C157.221 264.764 159.039 262.838 161.649 262.838C164.313 262.838 166.005 264.62 166.005 267.392V268.058L159.309 268.076C159.471 269.642 160.299 270.434 161.757 270.434C162.963 270.434 163.755 269.966 164.007 269.12H166.041C165.663 271.064 164.043 272.234 161.721 272.234ZM161.667 264.638C160.371 264.638 159.579 265.34 159.363 266.672H163.827C163.827 265.448 162.981 264.638 161.667 264.638ZM166.719 269.3H168.807C168.825 270.074 169.401 270.56 170.409 270.56C171.435 270.56 171.993 270.146 171.993 269.498C171.993 269.048 171.759 268.724 170.967 268.544L169.365 268.166C167.763 267.806 166.989 267.05 166.989 265.628C166.989 263.882 168.465 262.838 170.517 262.838C172.515 262.838 173.865 263.99 173.883 265.718H171.795C171.777 264.962 171.273 264.476 170.427 264.476C169.563 264.476 169.059 264.872 169.059 265.538C169.059 266.042 169.455 266.366 170.211 266.546L171.813 266.924C173.307 267.266 174.063 267.95 174.063 269.318C174.063 271.118 172.533 272.234 170.337 272.234C168.123 272.234 166.719 271.046 166.719 269.3ZM181.324 272H178.93L183.682 258.842H186.04L190.792 272H188.362L187.3 268.958H182.386L181.324 272ZM184.564 262.766L183.07 267.014H186.634L185.122 262.766C185.014 262.424 184.888 262.028 184.852 261.758C184.798 262.01 184.69 262.406 184.564 262.766ZM193.954 272H191.758V263.108H193.792L193.972 264.26C194.53 263.36 195.61 262.838 196.816 262.838C199.048 262.838 200.2 264.224 200.2 266.528V272H198.004V267.05C198.004 265.556 197.266 264.836 196.132 264.836C194.782 264.836 193.954 265.772 193.954 267.212V272ZM205.652 272.234C203.078 272.234 201.476 270.344 201.476 267.59C201.476 264.818 203.096 262.838 205.778 262.838C207.02 262.838 208.118 263.36 208.676 264.242V258.608H210.854V272H208.838L208.694 270.614C208.154 271.64 207.002 272.234 205.652 272.234ZM206.138 270.218C207.668 270.218 208.658 269.12 208.658 267.518C208.658 265.916 207.668 264.8 206.138 264.8C204.608 264.8 203.672 265.934 203.672 267.518C203.672 269.102 204.608 270.218 206.138 270.218ZM222.332 272H217.598V258.842H222.206C226.094 258.842 228.776 261.524 228.776 265.448C228.776 269.318 226.148 272 222.332 272ZM221.99 260.966H219.902V269.876H222.116C224.744 269.876 226.346 268.184 226.346 265.448C226.346 262.658 224.708 260.966 221.99 260.966ZM234.216 272.234C231.57 272.234 229.716 270.308 229.716 267.554C229.716 264.764 231.534 262.838 234.144 262.838C236.808 262.838 238.5 264.62 238.5 267.392V268.058L231.804 268.076C231.966 269.642 232.794 270.434 234.252 270.434C235.458 270.434 236.25 269.966 236.502 269.12H238.536C238.158 271.064 236.538 272.234 234.216 272.234ZM234.162 264.638C232.866 264.638 232.074 265.34 231.858 266.672H236.322C236.322 265.448 235.476 264.638 234.162 264.638ZM239.214 269.3H241.302C241.32 270.074 241.896 270.56 242.904 270.56C243.93 270.56 244.488 270.146 244.488 269.498C244.488 269.048 244.254 268.724 243.462 268.544L241.86 268.166C240.258 267.806 239.484 267.05 239.484 265.628C239.484 263.882 240.96 262.838 243.012 262.838C245.01 262.838 246.36 263.99 246.378 265.718H244.29C244.272 264.962 243.768 264.476 242.922 264.476C242.058 264.476 241.554 264.872 241.554 265.538C241.554 266.042 241.95 266.366 242.706 266.546L244.308 266.924C245.802 267.266 246.558 267.95 246.558 269.318C246.558 271.118 245.028 272.234 242.832 272.234C240.618 272.234 239.214 271.046 239.214 269.3ZM250.894 272H248.698V264.944H246.988V263.108H248.698V260.336H250.894V263.108H252.622V264.944H250.894V272ZM254.725 261.326C253.969 261.326 253.375 260.732 253.375 259.994C253.375 259.256 253.969 258.68 254.725 258.68C255.445 258.68 256.039 259.256 256.039 259.994C256.039 260.732 255.445 261.326 254.725 261.326ZM253.627 272V263.108H255.823V272H253.627ZM259.928 272H257.732V263.108H259.766L259.946 264.26C260.504 263.36 261.584 262.838 262.79 262.838C265.022 262.838 266.174 264.224 266.174 266.528V272H263.978V267.05C263.978 265.556 263.24 264.836 262.106 264.836C260.756 264.836 259.928 265.772 259.928 267.212V272ZM270.617 272.234C268.727 272.234 267.575 271.136 267.575 269.462C267.575 267.824 268.763 266.798 270.869 266.636L273.533 266.438V266.24C273.533 265.034 272.813 264.548 271.697 264.548C270.401 264.548 269.681 265.088 269.681 266.024H267.809C267.809 264.098 269.393 262.838 271.805 262.838C274.199 262.838 275.675 264.134 275.675 266.6V272H273.749L273.587 270.686C273.209 271.604 272.003 272.234 270.617 272.234ZM271.337 270.578C272.687 270.578 273.551 269.768 273.551 268.4V267.932L271.697 268.076C270.329 268.202 269.807 268.652 269.807 269.372C269.807 270.182 270.347 270.578 271.337 270.578ZM280.373 272H278.177V264.944H276.467V263.108H278.177V260.336H280.373V263.108H282.101V264.944H280.373V272ZM284.205 261.326C283.449 261.326 282.855 260.732 282.855 259.994C282.855 259.256 283.449 258.68 284.205 258.68C284.925 258.68 285.519 259.256 285.519 259.994C285.519 260.732 284.925 261.326 284.205 261.326ZM283.107 272V263.108H285.303V272H283.107ZM286.689 267.536C286.689 264.764 288.687 262.856 291.441 262.856C294.196 262.856 296.194 264.764 296.194 267.536C296.194 270.308 294.196 272.216 291.441 272.216C288.687 272.216 286.689 270.308 286.689 267.536ZM288.885 267.536C288.885 269.156 289.929 270.254 291.441 270.254C292.953 270.254 293.997 269.156 293.997 267.536C293.997 265.916 292.953 264.818 291.441 264.818C289.929 264.818 288.885 265.916 288.885 267.536ZM299.77 272H297.574V263.108H299.608L299.788 264.26C300.346 263.36 301.426 262.838 302.632 262.838C304.864 262.838 306.016 264.224 306.016 266.528V272H303.82V267.05C303.82 265.556 303.082 264.836 301.948 264.836C300.598 264.836 299.77 265.772 299.77 267.212V272ZM307.024 269.3H309.112C309.13 270.074 309.706 270.56 310.714 270.56C311.74 270.56 312.298 270.146 312.298 269.498C312.298 269.048 312.064 268.724 311.272 268.544L309.67 268.166C308.068 267.806 307.294 267.05 307.294 265.628C307.294 263.882 308.77 262.838 310.822 262.838C312.82 262.838 314.17 263.99 314.188 265.718H312.1C312.082 264.962 311.578 264.476 310.732 264.476C309.868 264.476 309.364 264.872 309.364 265.538C309.364 266.042 309.76 266.366 310.516 266.546L312.118 266.924C313.612 267.266 314.368 267.95 314.368 269.318C314.368 271.118 312.838 272.234 310.642 272.234C308.428 272.234 307.024 271.046 307.024 269.3ZM327.696 266.618H322.8V272H320.496V258.842H328.632V260.966H322.8V264.548H327.696V266.618ZM335.06 263.072V265.106H334.25C332.666 265.106 331.676 265.952 331.676 267.68V272H329.48V263.126H331.55L331.676 264.422C332.054 263.54 332.9 262.946 334.088 262.946C334.394 262.946 334.7 262.982 335.06 263.072ZM335.365 267.536C335.365 264.764 337.363 262.856 340.117 262.856C342.871 262.856 344.869 264.764 344.869 267.536C344.869 270.308 342.871 272.216 340.117 272.216C337.363 272.216 335.365 270.308 335.365 267.536ZM337.561 267.536C337.561 269.156 338.605 270.254 340.117 270.254C341.629 270.254 342.673 269.156 342.673 267.536C342.673 265.916 341.629 264.818 340.117 264.818C338.605 264.818 337.561 265.916 337.561 267.536ZM348.446 272H346.25V263.108H348.266L348.446 264.152C348.896 263.414 349.796 262.838 351.074 262.838C352.424 262.838 353.36 263.504 353.828 264.53C354.278 263.504 355.322 262.838 356.672 262.838C358.832 262.838 360.02 264.134 360.02 266.186V272H357.842V266.762C357.842 265.484 357.158 264.818 356.114 264.818C355.052 264.818 354.242 265.502 354.242 266.96V272H352.046V266.744C352.046 265.502 351.38 264.836 350.336 264.836C349.292 264.836 348.446 265.52 348.446 266.96V272ZM87.02 298.216C83.186 298.216 80.702 295.552 80.702 291.43C80.702 287.344 83.276 284.626 87.128 284.626C90.242 284.626 92.564 286.444 93.014 289.27H90.584C90.134 287.74 88.82 286.84 87.074 286.84C84.644 286.84 83.114 288.604 83.114 291.412C83.114 294.202 84.662 296.002 87.074 296.002C88.856 296.002 90.224 295.066 90.656 293.608H93.05C92.546 296.38 90.134 298.216 87.02 298.216ZM100.012 289.072V291.106H99.2022C97.6182 291.106 96.6282 291.952 96.6282 293.68V298H94.4322V289.126H96.5022L96.6282 290.422C97.0062 289.54 97.8522 288.946 99.0402 288.946C99.3462 288.946 99.6522 288.982 100.012 289.072ZM104.818 298.234C102.172 298.234 100.318 296.308 100.318 293.554C100.318 290.764 102.136 288.838 104.746 288.838C107.41 288.838 109.102 290.62 109.102 293.392V294.058L102.406 294.076C102.568 295.642 103.396 296.434 104.854 296.434C106.06 296.434 106.852 295.966 107.104 295.12H109.138C108.76 297.064 107.14 298.234 104.818 298.234ZM104.764 290.638C103.468 290.638 102.676 291.34 102.46 292.672H106.924C106.924 291.448 106.078 290.638 104.764 290.638ZM113.057 298.234C111.167 298.234 110.015 297.136 110.015 295.462C110.015 293.824 111.203 292.798 113.309 292.636L115.973 292.438V292.24C115.973 291.034 115.253 290.548 114.137 290.548C112.841 290.548 112.121 291.088 112.121 292.024H110.249C110.249 290.098 111.833 288.838 114.245 288.838C116.639 288.838 118.115 290.134 118.115 292.6V298H116.189L116.027 296.686C115.649 297.604 114.443 298.234 113.057 298.234ZM113.777 296.578C115.127 296.578 115.991 295.768 115.991 294.4V293.932L114.137 294.076C112.769 294.202 112.247 294.652 112.247 295.372C112.247 296.182 112.787 296.578 113.777 296.578ZM122.814 298H120.618V290.944H118.908V289.108H120.618V286.336H122.814V289.108H124.542V290.944H122.814V298ZM124.937 293.536C124.937 290.764 126.935 288.856 129.689 288.856C132.443 288.856 134.441 290.764 134.441 293.536C134.441 296.308 132.443 298.216 129.689 298.216C126.935 298.216 124.937 296.308 124.937 293.536ZM127.133 293.536C127.133 295.156 128.177 296.254 129.689 296.254C131.201 296.254 132.245 295.156 132.245 293.536C132.245 291.916 131.201 290.818 129.689 290.818C128.177 290.818 127.133 291.916 127.133 293.536ZM141.402 289.072V291.106H140.592C139.008 291.106 138.018 291.952 138.018 293.68V298H135.822V289.126H137.892L138.018 290.422C138.396 289.54 139.242 288.946 140.43 288.946C140.736 288.946 141.042 288.982 141.402 289.072ZM141.844 295.3H143.932C143.95 296.074 144.526 296.56 145.534 296.56C146.56 296.56 147.118 296.146 147.118 295.498C147.118 295.048 146.884 294.724 146.092 294.544L144.49 294.166C142.888 293.806 142.114 293.05 142.114 291.628C142.114 289.882 143.59 288.838 145.642 288.838C147.64 288.838 148.99 289.99 149.008 291.718H146.92C146.902 290.962 146.398 290.476 145.552 290.476C144.688 290.476 144.184 290.872 144.184 291.538C144.184 292.042 144.58 292.366 145.336 292.546L146.938 292.924C148.432 293.266 149.188 293.95 149.188 295.318C149.188 297.118 147.658 298.234 145.462 298.234C143.248 298.234 141.844 297.046 141.844 295.3ZM158.052 298L154.128 284.842H156.522L158.61 291.79C158.808 292.51 159.006 293.248 159.204 294.4C159.42 293.23 159.618 292.546 159.852 291.79L161.922 284.842H164.46L166.494 291.79C166.71 292.528 166.908 293.284 167.124 294.4C167.376 293.176 167.556 292.474 167.754 291.808L169.878 284.842H172.218L168.222 298H165.99L163.182 288.424L160.32 298H158.052ZM171.459 293.536C171.459 290.764 173.457 288.856 176.211 288.856C178.965 288.856 180.963 290.764 180.963 293.536C180.963 296.308 178.965 298.216 176.211 298.216C173.457 298.216 171.459 296.308 171.459 293.536ZM173.655 293.536C173.655 295.156 174.699 296.254 176.211 296.254C177.723 296.254 178.767 295.156 178.767 293.536C178.767 291.916 177.723 290.818 176.211 290.818C174.699 290.818 173.655 291.916 173.655 293.536ZM187.924 289.072V291.106H187.114C185.53 291.106 184.54 291.952 184.54 293.68V298H182.344V289.126H184.414L184.54 290.422C184.918 289.54 185.764 288.946 186.952 288.946C187.258 288.946 187.564 288.982 187.924 289.072ZM191.264 298H189.086V284.608H191.264V298ZM196.862 298.234C194.288 298.234 192.686 296.344 192.686 293.59C192.686 290.818 194.306 288.838 196.988 288.838C198.23 288.838 199.328 289.36 199.886 290.242V284.608H202.064V298H200.048L199.904 296.614C199.364 297.64 198.212 298.234 196.862 298.234ZM197.348 296.218C198.878 296.218 199.868 295.12 199.868 293.518C199.868 291.916 198.878 290.8 197.348 290.8C195.818 290.8 194.882 291.934 194.882 293.518C194.882 295.102 195.818 296.218 197.348 296.218ZM205.954 298L203.074 289.108H205.36L206.53 292.924C206.728 293.626 206.908 294.4 207.07 295.228C207.232 294.364 207.394 293.806 207.682 292.924L208.906 289.108H211.138L212.326 292.924C212.434 293.284 212.794 294.616 212.902 295.21C213.046 294.544 213.334 293.482 213.496 292.924L214.684 289.108H217.006L213.928 298H211.876L210.652 294.148C210.292 292.978 210.094 292.132 210.022 291.682C209.932 292.096 209.77 292.726 209.32 294.184L208.096 298H205.954ZM219.074 287.326C218.318 287.326 217.724 286.732 217.724 285.994C217.724 285.256 218.318 284.68 219.074 284.68C219.794 284.68 220.388 285.256 220.388 285.994C220.388 286.732 219.794 287.326 219.074 287.326ZM217.976 298V289.108H220.172V298H217.976ZM225.735 298.234C223.161 298.234 221.559 296.344 221.559 293.59C221.559 290.818 223.179 288.838 225.861 288.838C227.103 288.838 228.201 289.36 228.759 290.242V284.608H230.937V298H228.921L228.777 296.614C228.237 297.64 227.085 298.234 225.735 298.234ZM226.221 296.218C227.751 296.218 228.741 295.12 228.741 293.518C228.741 291.916 227.751 290.8 226.221 290.8C224.691 290.8 223.755 291.934 223.755 293.518C223.755 295.102 224.691 296.218 226.221 296.218ZM236.844 298.234C234.198 298.234 232.344 296.308 232.344 293.554C232.344 290.764 234.162 288.838 236.772 288.838C239.436 288.838 241.128 290.62 241.128 293.392V294.058L234.432 294.076C234.594 295.642 235.422 296.434 236.88 296.434C238.086 296.434 238.878 295.966 239.13 295.12H241.164C240.786 297.064 239.166 298.234 236.844 298.234ZM236.79 290.638C235.494 290.638 234.702 291.34 234.486 292.672H238.95C238.95 291.448 238.104 290.638 236.79 290.638Z" fill="#747474"/>
<path d="M98.725 219H82.835V193.415H98.725V197.545H87.315V204.125H97.535V208.08H87.315V214.87H98.725V219ZM102.812 219H97.9471L103.897 210.53L97.9471 201.71H102.917L106.732 207.59L110.407 201.71H115.202L109.322 210.46L115.027 219H110.127L106.452 213.295L102.812 219ZM114.596 227.015V201.71H118.551L118.831 204.335C119.881 202.34 122.156 201.185 124.781 201.185C129.646 201.185 132.866 204.72 132.866 210.145C132.866 215.535 129.926 219.455 124.781 219.455C122.191 219.455 119.951 218.44 118.866 216.69V227.015H114.596ZM118.901 210.355C118.901 213.47 120.826 215.605 123.766 215.605C126.776 215.605 128.561 213.435 128.561 210.355C128.561 207.275 126.776 205.07 123.766 205.07C120.826 205.07 118.901 207.24 118.901 210.355ZM137.421 219H133.186V192.96H137.421V219ZM137.736 210.32C137.736 204.93 141.621 201.22 146.976 201.22C152.331 201.22 156.216 204.93 156.216 210.32C156.216 215.71 152.331 219.42 146.976 219.42C141.621 219.42 137.736 215.71 137.736 210.32ZM142.006 210.32C142.006 213.47 144.036 215.605 146.976 215.605C149.916 215.605 151.946 213.47 151.946 210.32C151.946 207.17 149.916 205.035 146.976 205.035C144.036 205.035 142.006 207.17 142.006 210.32ZM167.3 201.64V205.595H165.725C162.645 205.595 160.72 207.24 160.72 210.6V219H156.45V201.745H160.475L160.72 204.265C161.455 202.55 163.1 201.395 165.41 201.395C166.005 201.395 166.6 201.465 167.3 201.64ZM174.194 219.455C169.049 219.455 165.444 215.71 165.444 210.355C165.444 204.93 168.979 201.185 174.054 201.185C179.234 201.185 182.524 204.65 182.524 210.04V211.335L169.504 211.37C169.819 214.415 171.429 215.955 174.264 215.955C176.609 215.955 178.149 215.045 178.639 213.4H182.594C181.859 217.18 178.709 219.455 174.194 219.455ZM174.089 204.685C171.569 204.685 170.029 206.05 169.609 208.64H178.289C178.289 206.26 176.644 204.685 174.089 204.685Z" fill="#000D15"/>
<circle cx="115" cy="121" r="35" fill="#0057B8"/>
<g clip-path="url(#clip1_1_85)">
<path d="M125.047 125.887C124.763 125.602 124.301 125.602 124.016 125.887L122.49 127.413L120.569 125.492C122.5 123.3 123.675 120.427 123.675 117.283C123.675 110.425 118.096 104.846 111.239 104.846C104.381 104.846 98.8018 110.425 98.8018 117.282C98.8018 124.14 104.381 129.719 111.238 129.719C114.428 129.719 117.34 128.511 119.544 126.529L121.459 128.444L119.932 129.971C119.796 130.107 119.719 130.293 119.719 130.486C119.719 130.68 119.796 130.865 119.932 131.002L126.025 137.094C126.709 137.778 127.617 138.154 128.583 138.154C129.549 138.154 130.457 137.778 131.14 137.094C132.55 135.684 132.55 133.39 131.14 131.979L125.047 125.887L125.047 125.887ZM111.239 126.796C105.993 126.796 101.725 122.528 101.725 117.282C101.725 112.037 105.993 107.769 111.238 107.769C116.484 107.769 120.751 112.037 120.751 117.283C120.751 122.528 116.484 126.796 111.238 126.796L111.239 126.796Z" fill="white"/>
<path d="M111.238 109.228C106.797 109.228 103.183 112.841 103.183 117.282C103.183 121.724 106.797 125.337 111.238 125.337C115.68 125.337 119.293 121.724 119.293 117.282C119.293 112.841 115.68 109.228 111.238 109.228ZM116.581 118.012C116.178 118.012 115.852 117.685 115.852 117.282C115.852 114.738 113.782 112.669 111.238 112.669C110.836 112.669 110.509 112.343 110.509 111.94C110.509 111.537 110.836 111.211 111.238 111.211C114.586 111.211 117.31 113.935 117.31 117.282C117.31 117.685 116.984 118.012 116.581 118.012Z" fill="white"/>
</g>
<defs>
<filter id="filter0_d_1_85" x="486" y="0" width="547" height="383" filterUnits="userSpaceOnUse" color-interpolation-filters="sRGB">
<feFlood flood-opacity="0" result="BackgroundImageFix"/>
<feColorMatrix in="SourceAlpha" type="matrix" values="0 0 0 0 0 0 0 0 0 0 0 0 0 0 0 0 0 0 127 0" result="hardAlpha"/>
<feOffset/>
<feGaussianBlur stdDeviation="20"/>
<feComposite in2="hardAlpha" operator="out"/>
<feColorMatrix type="matrix" values="0 0 0 0 0 0 0 0 0 0 0 0 0 0 0 0 0 0 0.08 0"/>
<feBlend mode="normal" in2="BackgroundImageFix" result="effect1_dropShadow_1_85"/>
<feBlend mode="normal" in="SourceGraphic" in2="effect1_dropShadow_1_85" result="shape"/>
</filter>
<filter id="filter1_d_1_85" x="972" y="0" width="547" height="383" filterUnits="userSpaceOnUse" color-interpolation-filters="sRGB">
<feFlood flood-opacity="0" result="BackgroundImageFix"/>
<feColorMatrix in="SourceAlpha" type="matrix" values="0 0 0 0 0 0 0 0 0 0 0 0 0 0 0 0 0 0 127 0" result="hardAlpha"/>
<feOffset/>
<feGaussianBlur stdDeviation="20"/>
<feComposite in2="hardAlpha" operator="out"/>
<feColorMatrix type="matrix" values="0 0 0 0 0 0 0 0 0 0 0 0 0 0 0 0 0 0 0.08 0"/>
<feBlend mode="normal" in2="BackgroundImageFix" result="effect1_dropShadow_1_85"/>
<feBlend mode="normal" in="SourceGraphic" in2="effect1_dropShadow_1_85" result="shape"/>
</filter>
<filter id="filter2_d_1_85" x="0" y="0" width="547" height="383" filterUnits="userSpaceOnUse" color-interpolation-filters="sRGB">
<feFlood flood-opacity="0" result="BackgroundImageFix"/>
<feColorMatrix in="SourceAlpha" type="matrix" values="0 0 0 0 0 0 0 0 0 0 0 0 0 0 0 0 0 0 127 0" result="hardAlpha"/>
<feOffset/>
<feGaussianBlur stdDeviation="20"/>
<feComposite in2="hardAlpha" operator="out"/>
<feColorMatrix type="matrix" values="0 0 0 0 0 0 0 0 0 0 0 0 0 0 0 0 0 0 0.08 0"/>
<feBlend mode="normal" in2="BackgroundImageFix" result="effect1_dropShadow_1_85"/>
<feBlend mode="normal" in="SourceGraphic" in2="effect1_dropShadow_1_85" result="shape"/>
</filter>
<clipPath id="clip0_1_85">
<rect width="35" height="35" fill="white" transform="translate(584 104)"/>
</clipPath>
<clipPath id="clip1_1_85">
<rect width="35" height="35" fill="white" transform="translate(98 104)"/>
</clipPath>
</defs>
</svg>
