<svg width="35" height="35" viewBox="0 0 35 35" fill="none" xmlns="http://www.w3.org/2000/svg">
<g clip-path="url(#clip0_1_93)">
<path d="M20.3334 19.1275C19.9552 18.7494 19.3418 18.7494 18.9636 19.1276L16.7848 21.3064L13.6936 18.2153L15.8725 16.0364C16.2508 15.6581 16.2508 15.0448 15.8725 14.6665C15.4942 14.2882 14.8808 14.2882 14.5026 14.6665L12.3238 16.8454L10.5816 15.1033C10.2034 14.725 9.59003 14.725 9.21179 15.1033L5.35906 18.956C2.67425 21.6408 2.50642 25.9041 4.85566 28.7862C4.82422 28.8106 4.79352 28.8366 4.76461 28.8655L0.283787 33.3465C-0.0945142 33.7247 -0.0945142 34.3381 0.283787 34.7163C0.472937 34.9055 0.720808 35 0.968679 35C1.21655 35 1.46449 34.9054 1.65357 34.7163L6.13446 30.2355C6.16338 30.2065 6.18935 30.1758 6.21383 30.1444C7.5588 31.2407 9.20455 31.7888 10.8503 31.7888C12.7312 31.7888 14.6121 31.0729 16.044 29.6409L19.8967 25.7882C20.275 25.41 20.275 24.7966 19.8967 24.4183L18.1546 22.6762L20.3334 20.4974C20.7117 20.1192 20.7117 19.5058 20.3334 19.1275ZM14.6844 25.248C14.5582 25.374 14.393 25.4371 14.2277 25.4371C14.0624 25.4371 13.8972 25.374 13.7711 25.248L9.75211 21.229C9.49993 20.9768 9.49993 20.5679 9.75211 20.3157C10.0044 20.0636 10.4131 20.0636 10.6654 20.3157L14.6844 24.3347C14.9366 24.5868 14.9366 24.9958 14.6844 25.248Z" fill="white"/>
<path d="M34.7163 1.65358C35.0946 1.27535 35.0946 0.662026 34.7163 0.283726C34.3381 -0.0945752 33.7247 -0.0945752 33.3464 0.283726L28.8656 4.76455C28.8366 4.79339 28.8108 4.82402 28.7863 4.85546C27.4798 3.78817 25.8594 3.20773 24.1497 3.20773C22.1878 3.20773 20.3433 3.97178 18.956 5.35907L15.1033 9.2118C14.725 9.5901 14.725 10.2034 15.1033 10.5817L24.4184 19.8966C24.6 20.0783 24.8464 20.1803 25.1033 20.1803C25.3602 20.1803 25.6066 20.0783 25.7881 19.8966L29.6409 16.0439C31.0282 14.6566 31.7922 12.8122 31.7922 10.8502C31.7922 9.1405 31.2118 7.52011 30.1444 6.21356C30.1758 6.18909 30.2064 6.16318 30.2353 6.13433L34.7163 1.65358ZM25.3424 14.5898C25.2163 14.7159 25.0511 14.7789 24.8858 14.7789C24.7205 14.7789 24.5553 14.7159 24.4292 14.5898L20.4102 10.5709C20.1581 10.3187 20.1581 9.90975 20.4102 9.65757C20.6625 9.40539 21.0713 9.40539 21.3235 9.65757L25.3424 13.6765C25.5946 13.9287 25.5946 14.3377 25.3424 14.5898Z" fill="white"/>
</g>
<defs>
<clipPath id="clip0_1_93">
<rect width="35" height="35" fill="white"/>
</clipPath>
</defs>
</svg>
