<svg width="35" height="35" viewBox="0 0 35 35" fill="none" xmlns="http://www.w3.org/2000/svg">
<path d="M17.5 0C10.1181 0 4.11255 6.00564 4.11255 13.3875C4.11255 20.7694 10.1182 26.775 17.5 26.775C24.8819 26.775 30.8875 20.7694 30.8875 13.3875C30.8875 6.00564 24.882 0 17.5 0ZM23.7822 22.0341L17.5 19.0613L11.2179 22.0341L12.104 15.1408L7.33535 10.0849L14.1651 8.79751L17.5 2.69972L20.835 8.79737L27.6647 10.0848L22.8961 15.1408L23.7822 22.0341Z" fill="white"/>
<path d="M19.5014 10.6329L17.5001 6.97363L15.4987 10.6329L11.4 11.4055L14.2618 14.4397L13.7301 18.5765L17.5001 16.7924L21.2701 18.5765L20.7383 14.4397L23.6001 11.4055L19.5014 10.6329Z" fill="white"/>
<path d="M8.14819 30.3142C9.05361 30.1827 9.92068 29.8764 10.7096 29.4089V27.26C9.81069 26.8191 8.95326 26.2886 8.14819 25.6731V30.3142Z" fill="white"/>
<path d="M24.2906 29.4089C25.0795 29.8764 25.9466 30.1827 26.852 30.3142V25.6731C26.0469 26.2886 25.1895 26.819 24.2906 27.26V29.4089Z" fill="white"/>
<path d="M12.7603 28.0872V34.9999C14.2784 34.7808 15.6744 34.0756 16.7678 32.9602L17.5 32.2132L18.2323 32.9602C19.3256 34.0756 20.7216 34.7808 22.2398 34.9999V28.0872C20.7281 28.5728 19.1336 28.8257 17.5 28.8257C15.8664 28.8257 14.272 28.5728 12.7603 28.0872Z" fill="white"/>
</svg>
