<svg width="35" height="35" viewBox="0 0 35 35" fill="none" xmlns="http://www.w3.org/2000/svg">
<g clip-path="url(#clip0_1_121)">
<path d="M27.0475 21.8868C26.7626 21.6019 26.3013 21.6019 26.0164 21.8868L24.49 23.4132L22.5687 21.4921C24.4998 19.2999 25.6749 16.4268 25.6749 13.2826C25.6749 6.42505 20.0961 0.846191 13.2385 0.846191C6.38095 0.846191 0.801849 6.42505 0.801849 13.2824C0.801849 20.1397 6.3807 25.719 13.2383 25.719C16.4281 25.719 19.3402 24.5108 21.544 22.5294L23.4588 24.4442L21.9324 25.9706C21.7958 26.1072 21.7187 26.2927 21.7187 26.4861C21.7187 26.6796 21.7955 26.865 21.9324 27.0016L28.0253 33.0943C28.7085 33.7778 29.6166 34.1538 30.5827 34.1538C31.5489 34.1538 32.4572 33.7775 33.1402 33.0943C34.5504 31.6841 34.5504 29.3897 33.1402 27.9792L27.0472 21.8865L27.0475 21.8868ZM13.2385 22.7956C7.99289 22.7956 3.72532 18.528 3.72532 13.2824C3.72532 8.03675 7.99265 3.76942 13.2383 3.76942C18.4839 3.76942 22.7515 8.03699 22.7515 13.2826C22.7515 18.5282 18.4839 22.7958 13.2383 22.7958L13.2385 22.7956Z" fill="white"/>
<path d="M13.2383 5.22754C8.79692 5.22754 5.18341 8.8408 5.18341 13.2824C5.18341 17.724 8.79667 21.3373 13.2383 21.3373C17.6799 21.3373 21.2931 17.724 21.2931 13.2824C21.2931 8.8408 17.6799 5.22754 13.2383 5.22754ZM18.5809 14.0116C18.1781 14.0116 17.8517 13.6851 17.8517 13.2824C17.8517 10.7383 15.7821 8.66896 13.2383 8.66896C12.8355 8.66896 12.5091 8.34254 12.5091 7.9398C12.5091 7.53705 12.8355 7.21063 13.2383 7.21063C16.5861 7.21063 19.31 9.93455 19.31 13.2824C19.31 13.6851 18.9836 14.0116 18.5809 14.0116Z" fill="white"/>
</g>
<defs>
<clipPath id="clip0_1_121">
<rect width="35" height="35" fill="white"/>
</clipPath>
</defs>
</svg>
