<svg width="35" height="35" viewBox="0 0 35 35" fill="none" xmlns="http://www.w3.org/2000/svg">
<path d="M33.3341 23.6981L33.3341 1.48606L22.0564 12.8226C26.174 8.68315 33.2418 11.5684 33.2862 17.4068L33.3341 23.6981Z" fill="white"/>
<path d="M33.3341 1.48606L18.526 1.48606L11.122 1.48606L17.3766 1.5087C23.2676 1.53002 26.211 8.64611 22.0564 12.8226L33.3341 1.48606Z" fill="white"/>
<path d="M1.01211 33.808L22.0564 12.8226M33.3341 1.48606L18.526 1.48606L11.122 1.48606M33.3341 1.48606L33.3341 23.6981M33.3341 1.48606L22.0564 12.8226M3.71804 1.48606L11.122 1.48606M33.3341 31.1021V23.6981M11.122 1.48606L17.3766 1.5087C23.2676 1.53003 26.211 8.64611 22.0564 12.8226V12.8226M33.3341 23.6981L33.2862 17.4068C33.2418 11.5684 26.174 8.68315 22.0564 12.8226V12.8226" stroke="white" stroke-width="2" stroke-linecap="round" stroke-linejoin="round"/>
</svg>
